<mxfile host="app.diagrams.net" modified="2024-01-15T10:50:00.000Z" agent="5.0" etag="example" version="22.0.0">
  <diagram name="Fibonacci Dizisi" id="flowchart">
    <mxGraphModel dx="1422" dy="1200" grid="1" gridSize="10" guides="1" tooltips="1" connect="1" arrows="1" fold="1" page="1" pageScale="1" pageWidth="827" pageHeight="1169" math="0" shadow="0">
      <root>
        <mxCell id="0"/>
        <mxCell id="1" parent="0"/>
        
        <!-- BAŞLA -->
        <mxCell id="start" value="BAŞLA" style="ellipse;whiteSpace=wrap;html=1;fillColor=#d5e8d4;strokeColor=#82b366;" vertex="1" parent="1">
          <mxGeometry x="360" y="40" width="120" height="60" as="geometry"/>
        </mxCell>
        
        <!-- n sayısını al -->
        <mxCell id="input" value="n al" style="shape=parallelogram;perimeter=parallelogramPerimeter;whiteSpace=wrap;html=1;fixedSize=1;fillColor=#dae8fc;strokeColor=#6c8ebf;" vertex="1" parent="1">
          <mxGeometry x="360" y="140" width="120" height="60" as="geometry"/>
        </mxCell>
        
        <!-- n <= 0 kontrolü -->
        <mxCell id="check_positive" value="n <= 0 ?" style="rhombus;whiteSpace=wrap;html=1;fillColor=#e1d5e7;strokeColor=#9673a6;" vertex="1" parent="1">
          <mxGeometry x="360" y="240" width="120" height="80" as="geometry"/>
        </mxCell>
        
        <!-- Hata mesajı -->
        <mxCell id="error" value="&quot;HATA&quot;" style="shape=parallelogram;perimeter=parallelogramPerimeter;whiteSpace=wrap;html=1;fixedSize=1;fillColor=#f8cecc;strokeColor=#b85450;" vertex="1" parent="1">
          <mxGeometry x="560" y="250" width="120" height="60" as="geometry"/>
        </mxCell>
        
        <!-- Başlangıç değerleri -->
        <mxCell id="init" value="a ← 0, b ← 1&#xa;sayaç ← 1" style="rounded=0;whiteSpace=wrap;html=1;fillColor=#fff2cc;strokeColor=#d6b656;" vertex="1" parent="1">
          <mxGeometry x="340" y="380" width="160" height="60" as="geometry"/>
        </mxCell>
        
        <!-- İlk kontrol -->
        <mxCell id="check_first" value="n >= 1 ?" style="rhombus;whiteSpace=wrap;html=1;fillColor=#e1d5e7;strokeColor=#9673a6;" vertex="1" parent="1">
          <mxGeometry x="360" y="480" width="120" height="80" as="geometry"/>
        </mxCell>
        
        <!-- İlk terimi yazdır -->
        <mxCell id="print_first" value="a yazdır" style="shape=parallelogram;perimeter=parallelogramPerimeter;whiteSpace=wrap;html=1;fixedSize=1;fillColor=#d5e8d4;strokeColor=#82b366;" vertex="1" parent="1">
          <mxGeometry x="200" y="490" width="120" height="60" as="geometry"/>
        </mxCell>
        
        <!-- Döngü koşulu -->
        <mxCell id="loop_condition" value="sayaç <= n ?" style="rhombus;whiteSpace=wrap;html=1;fillColor=#e1d5e7;strokeColor=#9673a6;" vertex="1" parent="1">
          <mxGeometry x="360" y="600" width="120" height="80" as="geometry"/>
        </mxCell>
        
        <!-- Fibonacci hesaplama -->
        <mxCell id="calculate" value="b yazdır&#xa;c ← a + b&#xa;a ← b, b ← c&#xa;sayaç ← sayaç + 1" style="rounded=0;whiteSpace=wrap;html=1;fillColor=#fff2cc;strokeColor=#d6b656;" vertex="1" parent="1">
          <mxGeometry x="300" y="740" width="240" height="80" as="geometry"/>
        </mxCell>
        
        <!-- BITIR -->
        <mxCell id="end" value="BITIR" style="ellipse;whiteSpace=wrap;html=1;fillColor=#f8cecc;strokeColor=#b85450;" vertex="1" parent="1">
          <mxGeometry x="360" y="880" width="120" height="60" as="geometry"/>
        </mxCell>
        
        <!-- Connections -->
        <mxCell id="edge1" edge="1" parent="1" source="start" target="input">
          <mxGeometry relative="1" as="geometry"/>
        </mxCell>
        <mxCell id="edge2" edge="1" parent="1" source="input" target="check_positive">
          <mxGeometry relative="1" as="geometry"/>
        </mxCell>
        <mxCell id="edge3" edge="1" parent="1" source="check_positive" target="error">
          <mxGeometry relative="1" as="geometry"/>
          <mxCell id="labelYes1" value="EVET" style="edgeLabel;html=1;align=center;verticalAlign=middle;" vertex="1" connectable="0" parent="edge3">
            <mxGeometry relative="1" as="geometry"/>
          </mxCell>
        </mxCell>
        <mxCell id="edge4" edge="1" parent="1" source="check_positive" target="init">
          <mxGeometry relative="1" as="geometry"/>
          <mxCell id="labelNo1" value="HAYIR" style="edgeLabel;html=1;align=center;verticalAlign=middle;" vertex="1" connectable="0" parent="edge4">
            <mxGeometry relative="1" as="geometry"/>
          </mxCell>
        </mxCell>
        <mxCell id="edge5" edge="1" parent="1" source="init" target="check_first">
          <mxGeometry relative="1" as="geometry"/>
        </mxCell>
        <mxCell id="edge6" edge="1" parent="1" source="check_first" target="print_first">
          <mxGeometry relative="1" as="geometry"/>
          <mxCell id="labelYes2" value="EVET" style="edgeLabel;html=1;align=center;verticalAlign=middle;" vertex="1" connectable="0" parent="edge6">
            <mxGeometry relative="1" as="geometry"/>
          </mxCell>
        </mxCell>
        <mxCell id="edge7" edge="1" parent="1" source="check_first" target="loop_condition">
          <mxGeometry relative="1" as="geometry"/>
          <mxCell id="labelNo2" value="HAYIR" style="edgeLabel;html=1;align=center;verticalAlign=middle;" vertex="1" connectable="0" parent="edge7">
            <mxGeometry relative="1" as="geometry"/>
          </mxCell>
        </mxCell>
        <mxCell id="edge8" edge="1" parent="1" source="print_first" target="loop_condition">
          <mxGeometry relative="1" as="geometry"/>
        </mxCell>
        <mxCell id="edge9" edge="1" parent="1" source="loop_condition" target="calculate">
          <mxGeometry relative="1" as="geometry"/>
          <mxCell id="labelYes3" value="EVET" style="edgeLabel;html=1;align=center;verticalAlign=middle;" vertex="1" connectable="0" parent="edge9">
            <mxGeometry relative="1" as="geometry"/>
          </mxCell>
        </mxCell>
        <mxCell id="edge10" edge="1" parent="1" source="loop_condition" target="end">
          <mxGeometry relative="1" as="geometry"/>
          <mxCell id="labelNo3" value="HAYIR" style="edgeLabel;html=1;align=center;verticalAlign=middle;" vertex="1" connectable="0" parent="edge10">
            <mxGeometry relative="1" as="geometry"/>
          </mxCell>
        </mxCell>
        <mxCell id="edge11" edge="1" parent="1" source="calculate" target="loop_condition">
          <mxGeometry relative="1" as="geometry">
            <Array as="points">
              <mxPoint x="240" y="780"/>
              <mxPoint x="240" y="640"/>
            </Array>
          </mxGeometry>
        </mxCell>
        <mxCell id="edge12" edge="1" parent="1" source="error" target="end">
          <mxGeometry relative="1" as="geometry">
            <Array as="points">
              <mxPoint x="620" y="920"/>
            </Array>
          </mxGeometry>
        </mxCell>
        
      </root>
    </mxGraphModel>
  </diagram>
</mxfile>